<svg width="50" height="50" viewBox="0 0 50 50" fill="none" xmlns="http://www.w3.org/2000/svg">
<path d="M0.402735 50C0.0854305 49.6326 0 49.2163 0 48.7387C0.012204 32.9535 0.0122048 17.1683 0.0122048 1.3831C0.0122048 1.19941 1.48939e-06 1.01572 0.0244096 0.844273C0.134246 0.0850162 0.976322 -0.257875 1.58652 0.219722C1.73297 0.329937 1.85501 0.464644 1.97705 0.587104C17.7935 16.458 33.6099 32.3289 49.4263 48.1998C49.646 48.4203 49.8046 48.6774 49.9999 48.9223C49.9999 49.2775 49.9999 49.6449 49.9999 50C33.4635 50 16.9392 50 0.402735 50ZM38.699 40.3134C38.6258 40.4236 38.5281 40.5828 38.4061 40.7052C37.8691 41.2563 37.3321 41.7951 36.7829 42.334C36.5023 42.6156 36.1117 42.7993 35.77 42.5911C35.4893 42.4319 35.172 42.1013 35.1354 41.8196C35.0988 41.5135 35.3063 41.0971 35.5259 40.8399C36.1117 40.1786 36.783 39.5663 37.3565 38.9908C35.9653 37.5702 34.5984 36.1987 33.195 34.7659C32.9753 35.0108 32.7434 35.2925 32.4871 35.5374C32.06 35.9782 31.6328 36.4314 31.1691 36.8355C30.7542 37.2029 30.1928 37.1661 29.8389 36.811C29.4849 36.4558 29.4605 35.9048 29.8022 35.4762C29.9487 35.3047 30.1073 35.1455 30.2782 34.9863C30.8152 34.4597 31.3644 33.9209 31.8769 33.4188C30.4613 31.986 29.1066 30.6267 27.6543 29.1694C27.5323 29.3409 27.4225 29.5368 27.2638 29.7083C26.739 30.2471 26.2143 30.7859 25.6651 31.288C25.2257 31.6921 24.6888 31.6554 24.3104 31.2635C23.9443 30.8839 23.9321 30.3818 24.2982 29.9409C24.4569 29.7572 24.6277 29.5858 24.7986 29.4144C25.3234 28.8878 25.8481 28.3734 26.3241 27.8958C24.9206 26.4753 23.566 25.116 22.1503 23.7077C21.9062 23.9771 21.6377 24.271 21.3448 24.5649C20.9177 24.9935 20.5028 25.4344 20.039 25.814C19.6729 26.1202 19.258 26.1079 18.8796 25.814C18.5135 25.5324 18.4281 25.1282 18.5745 24.7241C18.66 24.5037 18.843 24.32 19.0139 24.1485C19.6119 23.5362 20.2343 22.9362 20.7835 22.3974C19.3678 20.9768 18.0132 19.6053 16.6219 18.2092C16.0727 18.7603 15.4991 19.3603 14.9133 19.9481C14.2665 20.5972 13.7295 20.6707 13.2658 20.2053C12.8142 19.7522 12.9119 19.1889 13.5343 18.5521C14.1323 17.952 14.7181 17.3642 15.2306 16.8499C13.8272 15.4416 12.4603 14.0823 11.0935 12.6985C11.0446 12.7475 10.947 12.8332 10.8616 12.9189C10.2758 13.5067 9.7022 14.1068 9.092 14.6701C8.67707 15.062 8.09127 15.0252 7.72515 14.6456C7.37124 14.2905 7.35903 13.7394 7.71295 13.3108C7.90821 13.0781 8.14009 12.8577 8.35976 12.6495C8.83572 12.1719 9.31168 11.6943 9.72661 11.2779C7.10275 8.64502 4.5399 6.0611 1.97705 3.50167C1.97705 18.3439 1.97705 33.2351 1.97705 48.1386C16.8416 48.1386 31.6695 48.1386 46.4974 48.1386C43.9223 45.5424 41.3473 42.9585 38.699 40.3134Z" fill="#02E602"/>
<path d="M50 32.8534C49.7328 33.8126 49.0771 34.4925 48.3849 35.1603C47.7656 35.7553 47.1706 36.3745 46.5634 36.9816C45.1791 38.3415 43.479 38.3415 42.1068 36.9695C33.145 27.9967 24.1833 19.0361 15.2215 10.0755C14.9786 9.83268 14.7843 9.50485 14.675 9.18917C13.8128 6.65154 12.9749 4.10178 12.1249 1.56415C11.9792 1.11491 11.8942 0.677807 12.2585 0.289271C12.6471 -0.111406 13.0964 -0.0264125 13.57 0.13143C16.1322 0.981352 18.6945 1.83127 21.2446 2.70548C21.536 2.80261 21.8274 2.98474 22.046 3.20329C31.0321 12.1639 40.006 21.1366 48.98 30.1094C49.49 30.6193 49.7936 31.2143 50 31.8942C50 32.2099 50 32.5256 50 32.8534ZM17.8201 9.83268C24.3411 16.3649 30.8985 22.9093 37.4316 29.4537C38.7674 28.1181 40.1275 26.7583 41.4389 25.4348C34.9058 18.9026 28.3484 12.346 21.8274 5.8259C20.516 7.14935 19.168 8.49709 17.8201 9.83268ZM45.6891 29.6116C44.3291 30.9714 42.969 32.3313 41.5968 33.7033C42.2526 34.3711 42.9204 35.0632 43.6247 35.731C44.0862 36.1681 44.5962 36.1681 45.0455 35.7189C45.9563 34.8447 46.8427 33.9462 47.7171 33.0477C48.1421 32.5984 48.1664 32.1006 47.7535 31.6635C47.0856 30.9472 46.3691 30.2672 45.6891 29.6116ZM16.3994 8.22997C17.6987 6.94295 18.9738 5.68021 20.261 4.40532C18.3787 3.77395 16.4844 3.14258 14.4807 2.48693C15.1607 4.49031 15.7801 6.38443 16.3994 8.22997ZM40.1275 32.1856C41.4997 30.8136 42.8597 29.4537 44.1348 28.1788C43.7462 27.7539 43.3212 27.2925 42.9569 26.904C41.5968 28.2638 40.2368 29.6237 38.8888 30.9714C39.2896 31.3721 39.7267 31.7971 40.1275 32.1856Z" fill="#02E602"/>
<path d="M8.01244 30.9761C8.01244 27.7748 8.01244 24.561 8.01244 21.3597C8.01244 21.1729 8 20.986 8.03734 20.8117C8.17427 20.0892 8.98339 19.7653 9.58089 20.1888C9.74271 20.3009 9.87964 20.4504 10.0166 20.5874C16.4895 27.0523 22.95 33.5296 29.4105 39.9945C29.5474 40.1315 29.6968 40.2686 29.8089 40.4305C30.2321 41.0409 29.9209 41.8256 29.1865 41.9626C28.9873 42 28.7881 42 28.5889 42C22.2031 42 15.8049 42 9.41907 42C8.3112 42 8 41.6886 8 40.58C8.01245 37.3911 8.01244 34.1774 8.01244 30.9761ZM10.029 39.9696C15.5435 39.9696 21.0081 39.9696 26.3857 39.9696C20.9334 34.5137 15.4688 29.0453 10.029 23.6019C10.029 28.9955 10.029 34.4639 10.029 39.9696Z" fill="#02E602"/>
<path d="M32 18.9271C31.988 19.7651 31.254 20.2144 30.6283 19.8987C30.5561 19.8622 30.4839 19.8258 30.4238 19.7651C29.0401 18.3684 27.6323 16.996 26.2727 15.575C25.7312 15.0042 26.044 14.1176 26.79 14.0083C27.0427 13.9719 27.4037 14.0569 27.5842 14.2269C29.004 15.6115 30.3877 17.0203 31.7714 18.4413C31.9158 18.587 31.9519 18.8299 32 18.9271Z" fill="#02E602"/>
</svg>
