<svg width="183" height="190" viewBox="0 0 183 190" fill="none" xmlns="http://www.w3.org/2000/svg">
<path d="M179.071 147.416L179.073 147.413C179.393 147.058 179.757 146.701 180.114 146.35C180.217 146.249 180.32 146.148 180.42 146.048C180.879 145.592 181.313 145.142 181.669 144.673C182.37 143.745 182.719 142.81 182.351 141.7C181.822 140.273 180.815 139.255 179.725 138.154C179.624 138.052 179.523 137.95 179.421 137.846C178.239 136.644 177.028 135.308 176.642 133.284L176.64 133.273L176.638 133.262C176.391 131.534 176.478 129.772 176.561 128.063C176.571 127.87 176.58 127.678 176.589 127.487C176.678 125.577 176.718 123.733 176.291 121.945L176.29 121.938L176.288 121.931C176.078 120.926 175.749 120.381 175.393 120.08C175.044 119.785 174.599 119.666 174.022 119.666C173.449 119.666 172.808 119.782 172.08 119.913L172.016 119.924C171.281 120.057 170.472 120.199 169.665 120.199C168.659 120.199 167.503 119.803 166.495 119.195C165.492 118.589 164.572 117.734 164.07 116.744C163.736 116.175 163.697 115.528 163.721 114.973C163.731 114.717 163.757 114.461 163.779 114.229L163.786 114.158C163.812 113.9 163.831 113.679 163.831 113.485C163.831 112.296 163.662 111.129 163.166 109.968C162.782 109.206 162.301 108.842 161.732 108.596C161.433 108.467 161.107 108.369 160.737 108.267C160.668 108.248 160.597 108.229 160.525 108.209C160.219 108.126 159.887 108.036 159.551 107.924C159.296 107.839 158.996 107.753 158.664 107.658C158.337 107.564 157.984 107.461 157.639 107.347C156.975 107.126 156.247 106.83 155.799 106.383C155.547 106.132 155.425 105.826 155.342 105.618L155.333 105.593C155.238 105.357 155.182 105.234 155.088 105.14L155.03 105.083L154.994 105.01C154.862 104.747 154.658 104.535 154.403 104.339C154.225 104.203 154.054 104.095 153.871 103.98C153.773 103.918 153.671 103.854 153.564 103.782L153.554 103.776C152.611 103.116 152.004 102.427 151.647 101.587C151.296 100.76 151.207 99.8345 151.207 98.7502C151.207 98.1487 151.099 97.5522 150.984 96.9165C150.957 96.7669 150.93 96.615 150.903 96.4604C150.77 95.683 150.662 94.8383 150.865 94.0191C151.069 93.1081 151.572 92.3709 152.099 91.7308C152.3 91.4864 152.513 91.2465 152.717 91.0165C152.78 90.9461 152.841 90.8766 152.902 90.8081C153.162 90.5129 153.402 90.2312 153.607 89.9446C153.758 89.7183 153.906 89.4946 154.053 89.2731C154.93 87.9481 155.755 86.7029 156.843 85.461L156.854 85.4485L156.866 85.4368L156.873 85.4295C157.935 84.3697 158.837 83.4682 159.922 82.5658C160.377 82.187 160.696 81.6829 161.024 81.0716C161.092 80.9435 161.162 80.8095 161.234 80.6714C161.492 80.1754 161.777 79.6273 162.142 79.1155C162.531 78.5344 163.056 78.0142 163.564 77.529C163.638 77.4583 163.711 77.3883 163.785 77.3189C164.226 76.8994 164.648 76.4987 165.009 76.0677C166.128 74.6262 166.314 72.665 165.973 70.7902L165.972 70.7864C165.637 68.8606 164.715 67.3834 163.658 65.9104C163.49 65.6755 163.317 65.4398 163.142 65.2018C162.237 63.967 161.287 62.6716 160.667 61.1225L160.665 61.118C160.428 60.5109 160.197 59.8445 159.961 59.1628C159.882 58.9357 159.803 58.7069 159.723 58.478C159.399 57.5544 159.055 56.617 158.653 55.7278C157.844 53.9374 156.833 52.4177 155.376 51.6097C154.703 51.2364 153.977 51.1867 153.182 51.2703C152.782 51.3123 152.379 51.3862 151.96 51.4643L151.913 51.4731C151.515 51.5472 151.102 51.6244 150.696 51.6694L150.668 51.6725H150.64C149.787 51.6725 149.228 51.7576 148.702 51.9521C148.164 52.1512 147.631 52.4747 146.831 53.0068C146.496 53.2375 146.155 53.3807 145.81 53.3963C145.45 53.4126 145.139 53.2874 144.89 53.08C144.429 52.6978 144.17 52.0326 144.002 51.4152C143.826 50.7709 143.716 50.0486 143.631 49.4424C143.62 49.3716 143.611 49.3026 143.601 49.2355C143.57 49.01 143.541 48.806 143.512 48.6261C143.473 48.386 143.44 48.2256 143.41 48.1353L142.343 44.9398L142.33 44.9026L142.324 44.8638C142.235 44.3343 142.111 43.7304 141.877 43.245C141.646 42.7628 141.355 42.4912 140.968 42.436L140.949 42.4333L140.931 42.4291C140.665 42.3702 140.327 42.4141 139.907 42.5726C139.49 42.7296 139.04 42.9804 138.571 43.2745C138.288 43.452 138.019 43.6312 137.75 43.8102C137.563 43.9349 137.376 44.0594 137.185 44.1833C136.743 44.4691 136.292 44.7406 135.88 44.8947C135.162 45.1636 134.112 45.5034 133.127 45.5034C132.629 45.5034 132.114 45.417 131.659 45.1619C131.194 44.9007 130.829 44.4821 130.612 43.8874L130.605 43.868L130.6 43.848C130.289 42.7093 130.608 41.4695 131.013 40.3703C131.188 39.8936 131.389 39.4207 131.577 38.977C131.609 38.9016 131.64 38.8271 131.671 38.7535C131.889 38.2385 132.079 37.7735 132.203 37.3589C132.732 35.5993 133.023 33.8374 132.078 32.2607C131.683 31.6314 131.122 31.1449 130.483 30.6383C130.395 30.5686 130.305 30.4983 130.214 30.427C129.665 29.9979 129.071 29.5334 128.582 28.9667C127.288 27.6689 126.296 25.7588 126.671 23.7806C126.68 23.4858 126.766 23.2381 126.86 23.0304C122.016 23.5794 118.193 22.3979 115.018 20.866C113.576 20.1704 112.262 19.3994 111.058 18.6928C110.86 18.577 110.666 18.4628 110.474 18.351C109.1 17.5497 107.887 16.877 106.743 16.4962C105.451 16.0662 104.28 15.2509 103.114 14.222C102.133 13.3568 101.128 12.3156 100.044 11.1919C99.8421 10.9825 99.6373 10.7702 99.4294 10.5557C96.7706 7.81258 93.5219 4.61537 88.6972 1.90016C86.2966 0.549206 84.6663 0.302056 83.5179 0.630345C82.3819 0.955078 81.5677 1.88692 80.9034 3.27769C80.2666 4.61087 79.8125 6.26855 79.3372 8.0033C79.3159 8.08118 79.2945 8.15921 79.2731 8.23737C78.7812 10.0309 78.2577 11.8914 77.4739 13.4106C76.6427 15.0214 75.0886 16.1159 73.3085 16.8629C71.524 17.6117 69.4565 18.0354 67.5105 18.2713C65.5607 18.5076 63.7103 18.5579 62.3493 18.5495C61.6753 18.5454 61.1197 18.5268 60.7295 18.509C60.7485 18.6668 60.7696 18.852 60.7925 19.0618C60.8724 19.7937 60.9762 20.8396 61.0943 22.0999C61.3307 24.6211 61.6254 28.0075 61.9034 31.4712C62.1813 34.9345 62.4428 38.4778 62.6125 41.3119C62.6974 42.7287 62.7595 43.9713 62.7892 44.9395C62.8184 45.8885 62.8185 46.6204 62.7667 46.9826L62.7655 46.9909L62.7655 46.9909C62.0466 51.4768 60.2292 56.1165 55.9289 58.3595C55.0143 58.8614 54.1265 59.2358 53.2826 59.5706C53.069 59.6553 52.8596 59.737 52.6536 59.8174C52.0359 60.0584 51.4496 60.2872 50.8777 60.5482C49.3802 61.2317 48.0421 62.1112 46.863 63.8771L46.861 63.8802C45.054 66.5436 44.2691 69.6513 43.5573 72.8938C43.4913 73.1943 43.426 73.4961 43.3604 73.7988C42.7252 76.7326 42.072 79.7489 40.6684 82.4693L40.6669 82.4723C38.7003 86.2207 35.8152 90.5576 32.5296 93.1092L32.5283 93.1101C30.4519 94.7122 28.278 95.0819 26.0846 94.9667C24.9951 94.9094 23.8967 94.7325 22.8049 94.5289C22.4428 94.4614 22.0835 94.3914 21.725 94.3216C20.9914 94.1787 20.2616 94.0366 19.5204 93.9182C15.7598 93.3208 11.7675 94.5162 8.82444 96.9184C5.88836 99.315 4.02468 102.887 4.44947 107.043L4.45023 107.051C4.61341 108.925 5.3668 110.692 6.16466 112.563C6.19531 112.635 6.22603 112.707 6.25678 112.779C7.07566 114.701 7.91447 116.734 8.0077 118.968L8.00785 118.971C8.16843 123.621 5.93813 127.168 3.74091 130.662C3.41708 131.177 3.09396 131.691 2.77933 132.207C0.675289 135.709 -0.456811 139.404 1.54597 143.07L1.55001 143.078L1.54995 143.078C2.45819 144.809 3.94688 145.813 5.59369 146.835C5.70441 146.904 5.81596 146.973 5.92809 147.042C7.45417 147.984 9.08874 148.993 10.232 150.661L10.2354 150.666C11.4763 152.524 11.4598 154.623 11.2242 156.643C11.2896 156.579 11.3576 156.513 11.4281 156.445C12.2003 155.699 13.2652 154.709 14.4331 153.733C15.5983 152.76 16.8791 151.791 18.0818 151.096C18.6833 150.749 19.2776 150.462 19.8374 150.281C20.3924 150.1 20.9489 150.01 21.4589 150.095C23.088 150.366 25.6896 150.994 28.373 151.843C31.0521 152.69 33.8505 153.768 35.8552 154.951C36.7462 155.477 37.6003 156.074 38.3849 156.623C38.4794 156.689 38.573 156.755 38.6654 156.819C39.539 157.429 40.3039 157.946 40.9694 158.258C41.6498 158.576 42.0909 158.614 42.3908 158.474C42.6885 158.335 43.037 157.931 43.2935 156.865C43.2937 156.864 43.2938 156.863 43.294 156.863L43.7802 156.98C44.847 152.364 48.4031 147.748 50.5367 151.121C51.5173 152.671 51.9721 154.971 52.3844 157.056C52.8692 159.508 53.2953 161.663 54.4484 161.95C55.5905 162.236 59.0253 161.3 62.2438 160.423C65.0377 159.662 67.6686 158.945 68.4949 159.11L179.071 147.416ZM179.071 147.416C177.625 149.041 176.72 151.166 176.17 153.269M179.071 147.416L179.445 147.748M127.869 184.922C125.109 186.056 122.498 187.628 120.069 189.09C119.928 189.175 119.787 189.259 119.647 189.343C119.603 189.285 119.559 189.227 119.514 189.168C118.984 188.468 118.415 187.717 117.501 187.106C116.666 186.487 115.6 186.438 114.7 186.397L114.636 186.394C113.651 186.348 112.821 186.298 112.156 185.856L112.146 185.849L112.136 185.843C111.032 185.181 110.689 183.994 110.645 182.485C110.625 181.769 110.673 181.021 110.721 180.267L110.728 180.162C110.777 179.386 110.825 178.599 110.778 177.895C110.689 176.565 110.554 174.955 110.088 173.514C109.622 172.071 108.802 170.729 107.302 170.025C106.032 169.346 104.638 169.262 103.314 169.284C102.941 169.29 102.577 169.304 102.221 169.318C101.269 169.356 100.371 169.391 99.5034 169.267L99.5035 169.267L99.4912 169.265C98.0912 169.101 97.4293 168.589 97.104 167.923C96.7516 167.2 96.7295 166.177 96.9058 164.857L96.9059 164.857L96.9071 164.846C96.9461 164.496 97.0987 163.92 97.3059 163.174C97.3279 163.095 97.3505 163.014 97.3735 162.932C97.5599 162.263 97.7712 161.506 97.9424 160.752C98.1339 159.908 98.2824 159.04 98.2854 158.277C98.2883 157.536 98.1553 156.773 97.6525 156.271C97.1186 155.738 96.37 155.712 95.6919 155.849C95.0019 155.988 94.2461 156.319 93.5336 156.692C92.8154 157.068 92.1064 157.504 91.5106 157.872C90.8934 158.253 90.4354 158.536 90.1681 158.65L90.1546 158.656L90.1415 158.663C88.9038 159.281 87.8146 159.734 86.7515 159.856C85.7127 159.976 84.6723 159.782 83.5228 159.044L83.5144 159.039C82.9504 158.692 82.4167 158.323 81.8827 157.951L81.7985 157.892C81.2959 157.542 80.7899 157.189 80.2724 156.866C79.1758 156.182 77.9961 155.61 76.5656 155.419C74.0191 155.056 70.5784 155.391 68.6322 157.917L68.6028 157.955L68.5812 157.998C68.5078 158.145 68.4348 158.255 68.3458 158.389L68.3421 158.394C68.3029 158.453 68.2607 158.516 68.2168 158.586L128.059 185.384M127.869 184.922L128.059 185.384M127.869 184.922C127.868 184.922 127.868 184.922 127.867 184.923L128.059 185.384M127.869 184.922C128.578 184.627 129.297 184.341 130.016 184.055C132.597 183.029 135.185 182 137.313 180.555C139.994 178.735 141.877 176.296 141.962 172.414L141.962 172.404C142.004 171.387 141.855 170.055 141.671 168.535C141.656 168.419 141.642 168.301 141.628 168.183C141.456 166.776 141.269 165.243 141.206 163.747C141.073 160.559 141.489 157.249 144.156 155.666M128.059 185.384C128.75 185.097 129.458 184.816 130.17 184.532C136.06 182.191 142.303 179.71 142.461 172.425C142.509 171.278 142.325 169.771 142.124 168.126C141.579 163.658 140.909 158.168 144.417 156.092M144.156 155.666C144.154 155.667 144.151 155.669 144.149 155.67L144.417 156.092M144.156 155.666C144.158 155.664 144.16 155.663 144.163 155.662L144.417 156.092M144.156 155.666C145.247 154.975 146.544 154.758 147.899 154.799C149.257 154.839 150.711 155.139 152.147 155.52C153.086 155.769 154.038 156.059 154.957 156.339C155.436 156.485 155.906 156.628 156.36 156.761C157.703 157.154 158.916 157.462 159.928 157.547C166.103 158.06 170.932 156.045 176.17 153.269M144.417 156.092C147.013 154.443 151.097 155.686 154.798 156.813C156.674 157.384 158.451 157.925 159.886 158.045C166.287 158.577 171.266 156.447 176.6 153.607M176.6 153.607L176.115 153.485C176.133 153.413 176.151 153.341 176.17 153.269M176.6 153.607C177.133 151.476 178.022 149.346 179.445 147.748M176.6 153.607L176.365 153.165C176.3 153.2 176.235 153.234 176.17 153.269M179.445 147.748C179.754 147.405 180.102 147.063 180.458 146.714C181.942 145.254 183.54 143.684 182.823 141.535C182.255 139.996 181.17 138.901 180.089 137.811C178.801 136.511 177.52 135.218 177.133 133.191L179.445 147.748Z" fill="#01B601" stroke="#181818"/>
</svg>
