<svg width="92" height="92" viewBox="0 0 92 92" fill="none" xmlns="http://www.w3.org/2000/svg">
<path d="M91.3714 30.1165C91.655 31.7053 91.4953 33.9345 90.6344 37.0646C90.2943 36.9173 89.959 36.8369 89.6292 36.8275C89.1062 36.8125 88.6391 36.9776 88.2356 37.2666C87.4556 37.8251 86.9101 38.8469 86.515 39.973C85.7157 42.2512 85.4041 45.3425 85.3151 47.4048L85.315 47.4065C85.2992 47.8048 85.1112 48.2038 84.7071 48.6199C84.2987 49.0404 83.6942 49.4514 82.911 49.8575C81.3436 50.6702 79.1778 51.4053 76.7521 52.1643C76.1418 52.3552 75.5155 52.5475 74.8801 52.7427C73.0079 53.3176 71.0566 53.9169 69.2001 54.5774C66.7144 55.4617 64.3547 56.4705 62.5315 57.7106C58.8039 60.2461 57.7139 64.0946 57.6461 68.0777C57.5973 70.9477 58.0819 73.9697 58.5168 76.682C58.6802 77.7012 58.8367 78.6768 58.9551 79.5841C59.1571 81.1306 58.6871 82.643 57.821 84.0681C56.954 85.4949 55.7073 86.8042 54.4131 87.922C53.1216 89.0376 51.7997 89.9478 50.7988 90.5799C50.299 90.8955 49.8807 91.1409 49.5884 91.3068C49.5643 91.3204 49.5411 91.3335 49.5187 91.3461C47.704 88.796 44.9002 85.8171 42.2566 83.3025C40.8671 81.9806 39.5146 80.7803 38.3624 79.8301C37.2244 78.8916 36.2549 78.1746 35.6331 77.8358C34.1616 76.9732 33.3107 75.0376 32.9629 72.6282C32.6187 70.2436 32.7902 67.5381 33.2238 65.3531C33.4781 64.0723 33.0627 62.6655 32.3306 61.2215C31.5934 59.7673 30.4923 58.1943 29.263 56.5538C28.7471 55.8653 28.2082 55.1642 27.6611 54.4522C25.5793 51.7434 23.3766 48.8774 21.8552 45.9518C19.9316 42.0781 16.9511 40.0458 14.414 38.9863C12.4148 38.1514 10.6816 37.916 9.93086 37.854C9.4665 36.5044 8.41135 35.1789 7.29969 34.0587C6.08593 32.8356 4.74342 31.7971 3.84406 31.1616C3.29641 30.7034 2.70869 30.2942 2.11454 29.895C1.96254 29.7929 1.81056 29.6917 1.65851 29.5905C1.455 29.4551 1.25139 29.3195 1.04748 29.1816C1.45346 29.0161 1.98653 28.7951 2.61295 28.5272C4.08446 27.8977 6.07397 27.0073 8.14292 25.9649C10.2098 24.9236 12.3669 23.725 14.1686 22.4778C15.9512 21.244 17.4583 19.9146 18.1383 18.5931C18.6658 17.5679 19.1303 16.5418 19.5806 15.5472C19.6649 15.3608 19.7488 15.1755 19.8325 14.9916C20.3656 13.8199 20.893 12.6977 21.5096 11.6404C22.7352 9.53864 24.3093 7.69979 26.9482 6.32729L26.9483 6.32741L26.9584 6.32188C28.3775 5.54187 30.176 4.98528 32.0367 4.40943C32.6573 4.21739 33.2847 4.02319 33.9074 3.81786C35.1315 3.41416 36.3264 2.9686 37.3559 2.41226C38.1436 1.98652 38.8539 1.48577 39.4099 0.871608C39.4772 0.978889 39.553 1.09907 39.6367 1.23117C40.0248 1.84368 40.584 2.71271 41.2694 3.74026C42.6393 5.79417 44.5168 8.48671 46.5414 11.0313C48.5597 13.568 50.7489 15.9893 52.7438 17.4755C53.738 18.2162 54.7261 18.757 55.6519 18.9364C56.6084 19.1217 57.5089 18.9191 58.22 18.1749C62.8318 13.3489 67.6825 8.83975 73.5165 7.80233L73.5207 7.80155C75.9215 7.35356 77.5316 7.14729 78.5543 7.25035C79.0587 7.30118 79.3537 7.42208 79.527 7.56758C79.6817 7.69749 79.7922 7.89155 79.8295 8.22765C79.8295 8.74788 79.8259 9.22506 79.6673 9.86406L79.6651 9.87309L79.6632 9.8822C79.5854 10.2543 79.4748 10.7256 79.3469 11.2701C78.9091 13.1347 78.2699 15.8572 78.0619 18.3902C77.9274 20.0279 77.9655 21.6493 78.3827 22.9494C78.8071 24.2722 79.6466 25.3125 81.1087 25.6282L81.1353 25.634L81.1624 25.6368C81.8219 25.7056 82.534 25.7367 83.252 25.7662L83.3682 25.771C84.0536 25.799 84.7458 25.8274 85.4293 25.8856C86.8822 26.0095 88.2262 26.2645 89.2759 26.8849C90.2963 27.488 91.0754 28.4581 91.3714 30.1165Z" fill="#01B601" stroke="#181818"/>
</svg>
