<svg width="167" height="185" viewBox="0 0 167 185" fill="none" xmlns="http://www.w3.org/2000/svg">
<path d="M166.434 36.3318L166.435 36.3239C166.489 36.0538 166.512 35.4081 166.494 34.422C166.476 33.4579 166.421 32.2203 166.338 30.8047C166.172 27.9746 165.895 24.449 165.584 21.0098C165.274 17.5706 164.93 14.2224 164.631 11.7472C164.482 10.5084 164.344 9.4943 164.228 8.79841C164.187 8.55469 164.15 8.35612 164.118 8.20343C161.632 8.65557 159.135 9.45003 156.612 10.3431C155.747 10.6495 154.875 10.9686 154.001 11.2889C152.203 11.947 150.391 12.6104 148.586 13.1801C143.202 14.8787 137.687 15.8104 132.104 13.4311C130.101 12.6107 128.246 11.4312 126.445 10.2076C126.035 9.92899 125.628 9.64863 125.223 9.36937C123.835 8.41217 122.465 7.46782 121.039 6.65245L121.03 6.64697L121.02 6.64107C119.839 5.89476 118.644 5.18452 117.451 4.47501C115.416 3.26542 113.384 2.05796 111.431 0.677606C110.746 1.47784 109.906 2.27619 108.793 3.07127M166.434 36.3318L151.121 53.1227M166.434 36.3318L166.432 36.3398C165.729 40.5618 163.992 44.9724 160.128 46.9921M166.434 36.3318L160.355 47.4374M108.793 3.07127C107.347 4.11299 105.837 5.12204 104.329 6.13047C103.516 6.67346 102.704 7.21626 101.902 7.76389C99.6031 9.33441 97.365 10.9598 95.3513 12.7981C94.7839 13.3685 94.2707 14.1789 93.7366 15.0954C93.6255 15.2861 93.5134 15.4815 93.4 15.6793C92.9785 16.414 92.5387 17.1806 92.0621 17.8554C91.457 18.7121 90.7461 19.4916 89.8479 19.9105C88.9205 20.3431 87.8588 20.362 86.6354 19.8234L86.6272 19.8198L86.6272 19.8197C85.9732 19.5177 85.4144 19.0493 84.9085 18.5546C84.6544 18.3061 84.407 18.0443 84.1657 17.7876L84.1145 17.733C83.8888 17.493 83.6682 17.2582 83.4421 17.032C82.4681 16.0575 81.4934 15.3478 80.1194 15.4232C78.9943 15.4992 78.1341 16.1702 77.3486 17.1473C76.9565 17.635 76.5973 18.1812 76.24 18.741C76.1833 18.8298 76.1265 18.9192 76.0696 19.0088C75.7731 19.4755 75.4734 19.9473 75.1658 20.3705L75.1615 20.3765C74.4622 21.3091 73.598 22.1447 72.7696 22.9456C72.6161 23.094 72.4638 23.2413 72.314 23.3878C71.3386 24.3415 70.4563 25.2727 69.8742 26.3542L69.8666 26.3684L69.858 26.3821C69.0546 27.6683 69.0016 29.0443 69.0238 30.5516C69.0257 30.6828 69.0283 30.8154 69.0309 30.9492C69.0572 32.3122 69.0859 33.7958 68.4714 35.2009L68.4703 35.2036C68.0949 36.0486 67.6537 36.6381 67.1191 36.9733C66.5652 37.3206 65.9774 37.3541 65.4113 37.2193C64.8634 37.0888 64.3188 36.7974 63.8022 36.4737C63.4798 36.2716 63.1397 36.0377 62.8049 35.8075C62.6102 35.6736 62.4174 35.541 62.2309 35.4166L62.2249 35.4126L62.225 35.4126C61.5136 34.9233 60.9624 34.5643 60.4922 34.329C60.0256 34.0956 59.6773 34.0044 59.3694 34.0125C58.7515 34.0287 58.0847 34.4483 56.8242 35.7094C56.5405 35.9933 56.2831 36.2688 56.0237 36.5463C55.8312 36.7525 55.6375 36.9598 55.4311 37.1726C54.9693 37.6486 54.4838 38.1079 53.9489 38.4606C53.4087 38.8168 52.8072 39.0718 52.1155 39.1273C51.4237 39.1828 50.6817 39.0357 49.8647 38.651L49.8512 38.6447L49.8382 38.6375C48.7561 38.047 47.7684 36.8993 46.9214 35.7397C46.4919 35.1516 46.0866 34.5433 45.7141 33.9758C45.6412 33.8647 45.5697 33.7555 45.4995 33.6483C45.2099 33.2058 44.9439 32.7994 44.6988 32.4489C42.7305 29.7636 41.3173 27.8461 39.5813 26.6387C37.8837 25.4581 35.8342 24.9338 32.5366 25.1943L32.5284 25.1949L32.5284 25.1949C32.0599 25.2242 31.5837 25.2646 31.1059 25.3052C30.1843 25.3836 29.257 25.4624 28.3685 25.4624C26.9941 25.4624 25.6232 25.2794 24.2877 24.6127C22.8184 23.9198 21.5557 22.8676 20.3456 21.8592C20.2568 21.7852 20.1683 21.7115 20.08 21.6381C18.7665 20.5466 17.4915 19.5321 15.9785 18.9434L15.9711 18.9405L15.9711 18.9405C13.7611 18.0397 11.1385 18.519 9.04548 19.915C6.95554 21.309 5.47224 23.565 5.47224 26.1172C5.47224 29.1095 7.1268 31.4293 9.31786 33.5776C10.1857 34.4285 11.1203 35.2363 12.0556 36.0448C12.3016 36.2574 12.5476 36.4701 12.7925 36.6836C13.9575 37.6993 15.093 38.7312 16.0082 39.8293C17.2182 41.2276 18.1904 43.1742 18.5392 45.1751C18.8884 47.1784 18.6198 49.2946 17.2584 50.9505C16.1555 52.3289 15.1014 53.0142 14.0331 53.1126C12.968 53.2107 12.0349 52.7104 11.2142 52.0744C10.6664 51.6498 10.1118 51.116 9.57218 50.5966C9.31584 50.3499 9.06287 50.1064 8.81559 49.8794C8.01942 49.1485 7.2456 48.5484 6.42503 48.2713C6.20595 48.2116 5.99724 48.1576 5.79797 48.106C5.15899 47.9405 4.61706 47.8002 4.14111 47.5804C3.47048 47.2707 2.92364 46.8092 2.27097 45.9702C2.03523 45.675 1.7725 45.2934 1.50275 44.9016C1.35554 44.6877 1.20625 44.4709 1.0581 44.2634C0.947451 44.1084 0.835707 43.9559 0.722781 43.8081C0.931705 45.6938 0.947455 47.5902 0.962968 49.458C0.964003 49.5826 0.965038 49.7071 0.966128 49.8315C0.988362 52.3675 1.03371 54.8511 1.55439 57.2821L1.55583 57.2888L1.55578 57.2888C2.40167 61.5203 5.60824 64.0782 9.00786 66.7634C9.20309 66.9122 9.40033 67.0619 9.59899 67.2127C11.2837 68.4914 13.071 69.8478 14.6068 71.4045C16.3299 73.1512 17.7671 75.1787 18.4186 77.6893C19.1616 80.3873 18.8293 83.0647 18.0589 85.6035C17.3596 87.9084 16.2868 90.1353 15.3013 92.1809C15.204 92.3828 15.1075 92.583 15.0124 92.7813L15.0089 92.7886L15.0089 92.7886C14.8038 93.1989 14.592 93.6148 14.3774 94.036C13.465 95.8276 12.5043 97.7139 11.8142 99.6611C10.9646 102.059 10.552 104.482 11.1399 106.835L11.1418 106.843L11.1418 106.843C11.7301 109.365 13.3332 111.413 15.3585 113.199C17.0402 114.683 18.9744 115.955 20.8114 117.164C21.1936 117.415 21.5716 117.664 21.9423 117.911L22.2075 118.088L22.159 118.403C21.9803 119.565 21.7105 121.097 21.3037 122.589C20.9013 124.065 20.3521 125.553 19.5911 126.605C19.0621 127.419 18.4402 127.978 17.8646 128.418C17.6438 128.587 17.4244 128.742 17.2245 128.883C17.1665 128.924 17.1101 128.964 17.0559 129.003C16.8075 129.18 16.6005 129.334 16.4307 129.489C16.1055 129.787 15.956 130.05 15.9578 130.417C15.9599 130.831 16.1545 131.454 16.7591 132.449C16.9212 132.692 17.0841 132.896 17.2606 133.116L17.2653 133.122C17.4387 133.339 17.6255 133.573 17.8131 133.853C19.214 135.779 20.9477 137.68 22.657 138.879C23.1417 139.202 23.6468 139.488 24.1622 139.78L24.2531 139.831C24.795 140.138 25.3483 140.455 25.8597 140.815C26.8945 141.545 27.7903 142.477 28.1857 143.96L28.2025 144.023V144.089C28.2025 144.161 28.2149 144.238 28.2378 144.34C28.5638 144.15 28.9983 143.917 29.4998 143.697C30.5878 143.221 32.0774 142.77 33.4732 143.063C34.1732 143.167 34.9264 143.485 35.6636 143.845C36.0263 144.022 36.3972 144.216 36.7656 144.409L36.807 144.431C37.1913 144.632 37.5735 144.831 37.9544 145.016C38.721 145.389 39.4494 145.687 40.1202 145.813C40.7839 145.938 41.3521 145.887 41.8384 145.609L41.8447 145.605L41.8512 145.602C44.366 144.26 46.4519 144.279 48.3772 144.296C48.5832 144.297 48.7874 144.299 48.99 144.299C49.2014 144.279 49.49 144.212 49.8588 144.104C50.1774 144.01 50.5311 143.894 50.918 143.766C50.9872 143.744 51.0574 143.72 51.1286 143.697C52.0553 143.393 53.1408 143.046 54.197 142.884C55.2451 142.723 56.3451 142.728 57.2602 143.207C58.2081 143.704 58.855 144.651 59.0952 146.141L59.0971 146.153L59.097 146.153C59.3377 147.92 59.1922 149.584 59.0495 151.218C59.0288 151.454 59.0082 151.69 58.9889 151.925C58.8569 153.528 58.7773 155.142 59.0779 156.914C60.1072 156.357 61.4236 156.418 62.5985 156.633C63.6403 156.824 64.6949 157.164 65.5128 157.428C65.7676 157.51 65.9995 157.584 66.2008 157.645C66.4533 157.717 66.6973 157.773 66.9454 157.831C66.9867 157.84 67.0281 157.85 67.0697 157.86C67.3555 157.926 67.6506 157.998 67.9335 158.096C68.5173 158.3 69.0639 158.622 69.4949 159.269L69.5044 159.283L69.513 159.298C69.9068 159.987 70.1418 160.803 70.3016 161.602C70.4399 162.294 70.5269 163.003 70.6045 163.635C70.6166 163.734 70.6286 163.831 70.6404 163.926L70.6423 163.941L70.6433 163.956C70.7336 165.401 70.6886 166.842 70.6444 168.256L70.644 168.267C70.5995 169.692 70.5562 171.09 70.6433 172.484C70.7292 173.859 70.9952 174.825 71.3827 175.539C71.7663 176.245 72.2859 176.734 72.9351 177.13C73.5963 177.533 74.3834 177.835 75.3075 178.166C75.4211 178.207 75.5365 178.248 75.6537 178.29C76.478 178.583 77.3897 178.908 78.3438 179.346L78.3515 179.349L78.3591 179.353C79.2074 179.777 79.9956 180.36 80.7446 180.966C81.0658 181.226 81.3718 181.483 81.6734 181.737C82.0971 182.093 82.5122 182.442 82.9482 182.781C84.4155 183.92 85.8257 184.693 87.4764 184.457C89.8271 184.121 92.001 182.729 94.225 181.127C94.5502 180.892 94.8768 180.653 95.205 180.413C97.081 179.04 99.0105 177.628 101.041 176.846L101.05 176.843C102.951 176.151 104.93 175.87 106.834 175.599C106.945 175.583 107.055 175.568 107.166 175.552C109.189 175.263 111.122 174.959 112.917 174.19C113.822 173.777 115.592 172.501 117.654 170.724C119.703 168.958 121.993 166.738 123.927 164.484C125.871 162.218 127.416 159.963 128.027 158.125C128.332 157.208 128.385 156.453 128.2 155.869C128.023 155.311 127.603 154.834 126.782 154.502L126.776 154.499C126.072 154.202 125.206 154.224 124.195 154.428C123.463 154.576 122.712 154.806 121.939 155.043C121.639 155.135 121.335 155.228 121.028 155.318C119.962 155.629 118.855 155.898 117.85 155.836C116.806 155.773 115.862 155.352 115.186 154.311L115.181 154.303L115.176 154.295C114.58 153.301 114.395 152.179 114.395 151.04C114.395 149.914 114.577 148.727 114.752 147.587L114.755 147.571C114.755 147.57 114.755 147.57 114.755 147.569C115.116 145.043 115.42 142.76 114.125 140.815C113.107 139.328 111.649 138.424 110.091 137.46C109.992 137.398 109.892 137.336 109.791 137.273C108.152 136.254 106.443 135.127 105.397 133.131C103.145 128.996 104.304 124.884 106.658 121.259C106.982 120.726 107.31 120.202 107.634 119.684C109.833 116.169 111.88 112.898 111.731 108.574C111.646 106.548 110.887 104.719 110.062 102.801C110.035 102.738 110.009 102.676 109.982 102.613C109.191 100.778 108.362 98.8502 108.181 96.6976C107.72 92.1541 109.764 88.2686 112.913 85.6931C116.056 83.1225 120.327 81.8312 124.385 82.4772L124.385 82.4773C125.142 82.5984 125.901 82.7464 126.643 82.8913C126.997 82.9603 127.347 83.0286 127.692 83.093C128.771 83.2946 129.816 83.4617 130.836 83.5155C132.863 83.6222 134.776 83.2817 136.609 81.8648L136.618 81.8578L136.618 81.8579C139.895 79.4422 142.693 75.0874 144.458 71.5543L144.461 71.549C145.799 68.9509 146.424 66.0636 147.064 63.1057C147.128 62.8078 147.193 62.5092 147.259 62.21C147.968 58.9712 148.782 55.6865 150.705 52.8449M108.793 3.07127C108.793 3.07145 108.793 3.07164 108.792 3.07182L108.502 2.66502L108.794 3.07072C108.794 3.0709 108.793 3.07109 108.793 3.07127ZM150.705 52.8449C150.706 52.8441 150.706 52.8432 150.707 52.8424L151.121 53.1227M150.705 52.8449C150.705 52.8451 150.705 52.8453 150.705 52.8455L151.121 53.1227M150.705 52.8449C152.01 50.8864 153.511 49.8564 155.125 49.0949C155.838 48.7589 156.577 48.4733 157.319 48.1866C157.407 48.1525 157.495 48.1185 157.583 48.0844C158.418 47.7606 159.264 47.424 160.128 46.9921M151.121 53.1227C152.92 50.4227 155.091 49.5836 157.5 48.6527C158.419 48.2972 159.374 47.9284 160.355 47.4374M160.128 46.9921C160.126 46.9928 160.125 46.9935 160.124 46.9941L160.355 47.4374M160.128 46.9921C160.129 46.9915 160.13 46.9908 160.131 46.9902L160.355 47.4374M58.7465 157.123C58.703 157.137 58.6595 157.155 58.6171 157.18C58.6633 157.432 58.717 157.688 58.7791 157.947C58.7791 157.769 58.7791 157.592 58.9567 157.592M58.7465 157.123C58.712 157.148 58.6779 157.174 58.6443 157.201L58.9567 157.592M58.7465 157.123C58.818 157.101 58.8897 157.092 58.9567 157.092V157.592M58.7465 157.123L59.1766 157.435C59.1007 157.483 59.0273 157.535 58.9567 157.592M27.7025 144.089C27.7025 144.264 27.7457 144.439 27.7895 144.614L27.7025 144.089ZM27.7025 144.089C27.1595 142.051 25.5786 141.156 23.9119 140.212C23.3985 139.922 22.877 139.626 22.3751 139.292C20.5993 138.048 18.8235 136.094 17.4029 134.139C17.2253 133.873 17.0477 133.651 16.8701 133.429C16.6926 133.207 16.515 132.985 16.3374 132.718C14.7122 130.047 15.5913 129.425 16.9407 128.472C17.6555 127.966 18.5023 127.368 19.1787 126.322C20.5993 124.368 21.3097 120.637 21.6648 118.327M27.7025 144.089L21.6648 118.327M21.6648 118.327C21.2998 118.083 20.9257 117.837 20.5459 117.588C16.4912 114.921 11.7914 111.83 10.6548 106.956M21.6648 118.327L10.6548 106.956M10.6548 106.956C9.52924 102.452 11.8981 97.8014 13.938 93.7969C14.1509 93.3789 14.3602 92.968 14.5616 92.565M10.6548 106.956L14.5616 92.565M14.5616 92.565C14.6565 92.3672 14.7525 92.1679 14.8492 91.9672C16.9218 87.6643 19.293 82.7415 17.9356 77.8186L14.5616 92.565ZM28.3536 144.852C28.0544 145.032 27.8801 145.155 27.8801 145.155L28.3536 144.852ZM164.538 8.13029C164.525 8.1329 164.513 8.13495 164.5 8.1365C164.508 8.13531 164.515 8.13413 164.522 8.13295L164.538 8.13029Z" fill="#01B601" stroke="#181818"/>
</svg>
