<svg width="89" height="107" viewBox="0 0 89 107" fill="none" xmlns="http://www.w3.org/2000/svg">
<path d="M40.329 10.0984L40.8286 10.1191C40.9172 7.98591 41.1826 5.02152 41.9117 2.91407C42.2803 1.84864 42.7358 1.09907 43.2587 0.742131C43.5071 0.572591 43.7732 0.489482 44.074 0.501066C44.3724 0.512554 44.7364 0.618726 45.1763 0.880024C45.2937 0.98608 45.4356 1.08085 45.539 1.14986L45.5577 1.16231C45.7052 1.26092 45.7906 1.32058 45.8368 1.36688L45.8515 1.38161L45.8673 1.39507C47.8159 3.04846 48.8787 4.69154 49.6861 5.93997C49.8084 6.12901 49.9248 6.30901 50.0376 6.47861C50.251 6.79969 50.4601 7.09632 50.6747 7.34224C50.8887 7.58749 51.1287 7.80637 51.4122 7.94854C52.0404 8.26352 52.6922 8.11795 53.3894 7.66855C53.625 7.51662 54.0108 7.37388 54.5364 7.26853C55.0541 7.16478 55.675 7.1036 56.356 7.09419C57.72 7.07534 59.2877 7.26454 60.6967 7.70342C62.115 8.14517 63.3134 8.82109 64.0125 9.73201C64.6861 10.6096 64.9412 11.762 64.3734 13.3088C64.0646 14.1269 63.7557 14.9043 63.4637 15.6379L63.4426 15.691C63.1589 16.4039 62.8909 17.0774 62.6585 17.6998C62.1893 18.9562 61.836 20.0763 61.8111 20.9499C61.7984 21.3954 61.8686 21.829 62.0982 22.1931C62.3355 22.5695 62.7039 22.8101 63.164 22.9334C64.0344 23.1666 65.3297 23.0049 67.1066 22.5149L67.1067 22.515L67.1178 22.5117C68.6848 22.0403 70.081 21.5514 71.3385 21.1111C71.5168 21.0486 71.6923 20.9872 71.8651 20.9269C73.2639 20.4389 74.4758 20.031 75.5871 19.7821C76.6942 19.5342 77.6763 19.4505 78.6121 19.5962C79.5404 19.7408 80.4519 20.1157 81.413 20.8267C83.0874 22.1527 84.8753 23.7297 86.2409 25.3599C87.6234 27.0104 88.5 28.6303 88.5 30.0487C88.5 30.8481 88.3493 31.4181 87.7578 32.0113L87.748 32.0211L87.7388 32.0315C87.0051 32.8538 86.247 33.5386 85.5193 34.1796C85.4356 34.2533 85.352 34.3267 85.2687 34.3998C84.6366 34.9548 84.0235 35.493 83.5038 36.055C82.9099 36.6973 82.4133 37.3954 82.1194 38.2362C81.8242 39.0807 81.7452 40.035 81.9342 41.1733C82.2892 43.3988 82.9048 47.5061 82.9268 51.3823C82.9378 53.3224 82.7996 55.1789 82.4173 56.7018C82.0322 58.2355 81.4217 59.3432 80.5592 59.9094C76.2757 62.595 72.647 66.3174 73.4071 71.2721C73.454 71.5777 73.513 71.9276 73.5782 72.3148C74.0178 74.9226 74.7429 79.2249 73.9877 83.1249C73.5571 85.3487 72.6513 87.396 70.969 88.9102C69.3319 90.3836 66.9069 91.3995 63.3268 91.5293C63.2828 91.4408 63.2112 91.3011 63.0773 91.1627C62.3372 90.3221 61.3455 90.0255 60.3694 90.001C59.3976 89.9767 58.4017 90.219 57.5783 90.4942L57.5713 90.4967C55.7228 91.1455 54.2519 92.1168 52.8944 93.2058C52.2175 93.7488 51.565 94.3244 50.9111 94.9023L50.8638 94.9441C50.2233 95.5102 49.58 96.0788 48.8959 96.6362C45.447 99.4023 41.2936 100.454 36.8557 101.344L36.8507 101.345C33.9118 101.966 30.5974 103.14 28.416 105.514C28.225 103.321 27.1516 100.773 25.6036 98.1278C23.6582 94.8032 20.8996 91.22 17.9479 87.8133C12.0464 81.0021 5.3168 74.8321 2.62064 72.7593L2.62071 72.7592L2.61211 72.7529C1.37867 71.8458 0.775528 70.7767 0.576817 69.6483C0.37538 68.5045 0.582794 67.2573 1.05214 66.0057C1.99369 63.4951 3.93665 61.1073 5.32284 59.8041L5.32871 59.7986L5.33441 59.7929C5.97168 59.1538 5.96865 58.2959 5.70289 57.4237C5.47284 56.6687 5.01661 55.7938 4.43521 54.8184C4.44151 54.8148 4.44788 54.8112 4.4543 54.8076C4.75958 54.6352 5.19313 54.3821 5.70992 54.0573C6.74225 53.4085 8.11288 52.4699 9.45841 51.3134C10.8014 50.1591 12.1365 48.773 13.0813 47.2259C14.0271 45.6771 14.5991 43.9367 14.3577 42.0964C14.2311 41.1316 14.0681 40.12 13.9003 39.079C13.4681 36.3967 13.0044 33.5196 13.0518 30.7475C13.117 26.9347 14.1538 23.4767 17.5172 21.2001L17.5172 21.2002L17.5242 21.1953C19.2449 19.9874 21.5147 18.9923 23.9859 18.109C25.9151 17.4195 27.9413 16.8067 29.9002 16.2143C30.4491 16.0483 30.9927 15.8839 31.5275 15.7198C33.9538 14.9754 36.2091 14.235 37.8713 13.3915C38.703 12.9695 39.4164 12.5071 39.9333 11.9825C40.4548 11.4533 40.8 10.8352 40.8286 10.1183L40.329 10.0984ZM40.329 10.0984C40.2305 12.5679 35.325 14.0513 29.7625 15.7335C25.2942 17.0848 20.402 18.5643 17.2369 20.786L46.1908 1.01382C46.102 0.924758 45.9688 0.8357 45.8356 0.746641C45.7024 0.657583 45.5691 0.568524 45.4803 0.47946C41.3948 -2.01433 40.5066 5.82329 40.329 10.0984Z" fill="#01B601" stroke="#181818"/>
</svg>
