<svg width="115" height="169" viewBox="0 0 115 169" fill="none" xmlns="http://www.w3.org/2000/svg">
<path d="M85.2524 141.803L85.253 141.803C87.4413 140.757 89.88 140.916 92.233 141.364C93.208 141.55 94.1878 141.789 95.1395 142.022C95.339 142.07 95.5372 142.119 95.7339 142.167C96.8759 142.443 97.9691 142.691 99.0006 142.82C100.43 142.97 101.859 142.89 103.335 142.808C103.546 142.796 103.757 142.784 103.97 142.773C105.593 142.688 107.267 142.639 108.953 142.964C112.43 140.755 114.018 137.843 114.404 134.598C114.8 131.272 113.935 127.561 112.442 123.865C109.98 117.768 105.877 111.869 103.205 108.028C102.636 107.21 102.133 106.486 101.723 105.873C99.2408 102.377 98.3554 96.8904 98.1779 91.5017C97.9993 86.0829 98.5348 80.6505 98.9795 77.1851L98.9797 77.1835C99.1998 75.5126 99.2831 74.2807 99.1904 73.1378C99.0982 72.0013 98.8301 70.9303 98.3209 69.5883C97.8086 68.2378 97.0587 66.6293 96.0068 64.411C95.8842 64.1526 95.7577 63.8861 95.627 63.611C94.6391 61.5306 93.4177 58.9585 91.9283 55.6693C91.9281 55.669 91.928 55.6688 91.9279 55.6685L92.3834 55.4622C91.4969 53.5139 90.7876 51.3883 90.433 49.2628L85.2524 141.803ZM85.2524 141.803C84.0499 142.38 83.4015 143.147 83.2543 144.083C83.1143 144.973 83.453 145.888 83.8974 146.719C84.2537 147.385 84.717 148.065 85.1511 148.702C85.2625 148.865 85.372 149.026 85.4772 149.183C86.0127 149.981 86.4287 150.668 86.5812 151.239L86.584 151.249L86.5871 151.259C87.0005 152.581 86.8112 153.384 86.4093 153.882C85.9865 154.406 85.2235 154.727 84.2149 154.842C83.2192 154.956 82.0673 154.859 80.9837 154.631C79.8995 154.403 78.9211 154.053 78.2684 153.686C77.8725 153.46 77.3605 153.116 76.7513 152.707C76.4323 152.493 76.0867 152.26 75.7171 152.018C74.662 151.325 73.4451 150.572 72.2238 150.013C71.0131 149.46 69.7376 149.068 68.5806 149.165C67.3741 149.265 66.3444 149.894 65.6923 151.247L65.6922 151.247L65.6876 151.257C65.1724 152.39 65.3039 153.409 65.8019 154.31C66.2813 155.179 67.0959 155.933 67.9328 156.613C68.2916 156.904 68.6468 157.177 68.9934 157.443C69.4936 157.827 69.9761 158.197 70.4259 158.591C71.1767 159.248 71.6898 159.855 71.8686 160.462C72.2423 161.731 71.6241 162.916 70.8513 164.256C70.8262 164.299 70.8009 164.343 70.7754 164.387C70.4287 164.987 70.0624 165.62 69.8335 166.253C69.5856 166.939 69.4774 167.679 69.7424 168.439C65.4918 168.055 62.9621 166.64 61.4698 165.286C60.671 164.562 60.159 163.845 59.8372 163.293C59.6465 162.966 59.5362 162.728 59.4603 162.55C59.8326 162.122 60.111 161.641 60.2449 161.106C60.407 160.458 60.3466 159.771 60.042 159.061L60.0362 159.047L60.0296 159.034C59.5894 158.155 58.6402 157.609 57.7653 157.228C57.3146 157.031 56.8504 156.866 56.4319 156.719L56.3031 156.674C55.9328 156.544 55.6119 156.432 55.3517 156.321C53.4631 155.462 51.7488 154.263 50.2029 152.547C47.4403 149.442 45.8764 145.812 45.003 141.805C44.9964 141.766 44.9892 141.722 44.9815 141.675C44.8869 141.101 44.7093 140.021 44.4148 139.034C44.2548 138.497 44.0519 137.957 43.7922 137.53C43.6134 137.236 43.3702 136.934 43.0456 136.76C42.9396 135.142 42.3934 133.908 41.4999 132.984C40.5549 132.006 39.2648 131.42 37.8318 131.053C36.398 130.687 34.7794 130.53 33.139 130.441C32.3255 130.397 31.4999 130.369 30.6846 130.342L30.6593 130.341C29.8364 130.313 29.0245 130.286 28.2354 130.242C25.2717 129.986 22.531 128.5 20.2958 126.657C18.0595 124.814 16.3718 122.648 15.5167 121.11L15.5117 121.101L15.5063 121.092C15.1031 120.433 15.0047 119.547 15.1041 118.425C15.1886 117.471 15.4077 116.418 15.6444 115.28C15.6856 115.082 15.7273 114.882 15.769 114.679C16.3182 112.001 16.8559 108.909 15.5285 106.254C14.8609 104.874 13.9594 104.07 12.8883 103.707C11.8374 103.35 10.6937 103.443 9.57895 103.707C8.50332 103.962 7.39702 104.392 6.36104 104.793L6.24719 104.838C5.15908 105.26 4.16184 105.639 3.28435 105.806C1.48232 106.149 0.877492 105.765 0.678003 105.531C0.594733 105.433 0.548878 105.326 0.52459 105.227M85.2524 141.803L0.52459 105.227M0.52459 105.227C1.506 104.849 2.3597 104.295 3.05889 103.422L3.05896 103.422L3.06477 103.414C4.03532 102.154 4.35933 100.575 4.6235 99.1013C4.64476 98.9827 4.66564 98.8648 4.68638 98.7477C4.93139 97.3647 5.15717 96.0901 5.76215 95.0324L5.7669 95.0241L5.77133 95.0156C6.24756 94.1038 7.32599 93.1124 8.70802 92.0023C9.13719 91.6576 9.59387 91.3027 10.0615 90.9394C11.0587 90.1645 12.1056 89.351 13.0415 88.5149C14.4169 87.286 15.6425 85.9341 16.194 84.4468C16.764 82.9096 16.5949 81.2794 15.2982 79.6001L15.2903 79.5899L15.2819 79.5801C14.72 78.9251 14.0259 78.3261 13.3607 77.7723C13.2459 77.6767 13.1322 77.5826 13.02 77.4899C12.4698 77.0347 11.957 76.6106 11.5325 76.1865C10.1293 74.7847 8.91909 73.4004 7.88439 71.6776L7.87642 71.6643L7.86764 71.6515C7.83177 71.5994 7.796 71.5475 7.76035 71.4957C5.84137 68.7084 4.24736 66.3932 4.40867 63.112C4.43791 62.7683 4.51462 62.2839 4.60832 61.6922C4.65379 61.405 4.70327 61.0926 4.75327 60.7587C4.90362 59.7545 5.05165 58.5942 5.07449 57.4874C5.0971 56.3924 4.99952 55.2891 4.61547 54.4305C4.42022 53.9941 4.14372 53.6045 3.75675 53.3174C3.48734 53.1176 3.1778 52.9774 2.8298 52.9011C2.92351 50.3396 3.10429 46.7122 3.51711 44.0933C3.62627 43.4009 3.75009 42.7895 3.88966 42.2926C4.03232 41.7847 4.17994 41.4396 4.31688 41.2475C4.36242 41.1836 4.39661 41.1513 4.41599 41.136C4.44068 41.1491 4.48812 41.1804 4.55701 41.2516C4.65126 41.349 4.76547 41.5003 4.89718 41.7228C6.5037 44.4602 9.0563 45.4568 11.3617 45.0158C13.6532 44.5774 15.6263 42.73 16.1044 39.9602L16.106 39.9507L16.1073 39.9413C16.2707 38.7168 16.8261 37.538 17.5967 36.3468C18.2188 35.3851 18.9606 34.4448 19.7233 33.478C19.9091 33.2423 20.0963 33.0051 20.2832 32.7657C22.1518 30.3719 24.0167 27.746 23.7343 24.6046C23.6414 23.0909 23.2306 21.3452 22.7726 19.5534C22.6918 19.2375 22.6095 18.9199 22.5269 18.6012C22.1358 17.0917 21.7381 15.5571 21.467 14.0586C20.8045 10.3959 20.9543 7.23823 23.5231 5.39045C25.6732 3.91309 26.9417 2.54374 27.7814 1.6374C28.0614 1.33513 28.2937 1.08437 28.4951 0.898264C28.905 0.519446 29.1069 0.469255 29.3148 0.513583C29.4515 0.54274 29.6383 0.62421 29.9025 0.807775C30.1651 0.990228 30.4796 1.25599 30.8711 1.62536L30.8717 1.62596C31.2098 1.94386 31.5628 2.39373 31.9477 2.9436C32.2097 3.31799 32.4753 3.72201 32.7552 4.14803C32.8869 4.34837 33.0218 4.55358 33.161 4.76286C34.0163 6.04872 35.0116 7.45338 36.241 8.44768C37.4892 9.45714 39.0042 10.0627 40.86 9.69808C42.579 9.3603 44.5186 8.20289 46.7665 5.92928C48.1401 7.74186 49.8069 9.52461 51.4947 10.7049L51.4946 10.705L51.5041 10.7113C51.9997 11.0414 52.5042 11.3338 52.9839 11.6118C53.0343 11.641 53.0844 11.67 53.1342 11.6989C53.6641 12.0066 54.1598 12.3 54.614 12.6271C55.5098 13.2723 56.2254 14.0352 56.626 15.2357L56.6372 15.2695L56.6532 15.3013C56.7703 15.5353 56.7776 15.7734 56.7776 16.1403V16.1758L56.7826 16.211C56.9059 17.0728 56.8715 17.9401 56.8345 18.8731C56.8205 19.2257 56.8062 19.5876 56.7998 19.9621C56.7772 21.2933 56.8649 22.7119 57.5324 24.1425C58.2008 25.6195 59.171 26.5368 60.3285 27.089C61.4693 27.6333 62.7627 27.8088 64.0598 27.8651C64.7108 27.8934 65.3745 27.8919 66.0289 27.8881C66.0881 27.8878 66.1472 27.8874 66.2063 27.887C66.8035 27.8834 67.3918 27.8798 67.971 27.8959C69.114 27.9277 70.1804 28.0361 71.1268 28.3524C71.0426 29.5254 70.5339 30.4014 69.9377 31.2948C69.8681 31.3991 69.7966 31.5044 69.7243 31.611C69.1345 32.4797 68.485 33.4362 68.3081 34.6617C68.1687 35.5015 68.2174 36.1735 68.5165 36.6766C68.8285 37.2017 69.3426 37.4287 69.8567 37.5314C70.3489 37.6298 70.9224 37.6297 71.4631 37.6297H71.495C72.0668 37.6297 72.6267 37.6307 73.1588 37.7124L73.1789 37.7155L73.1992 37.717C74.3696 37.8005 75.5409 37.9238 76.7412 38.0501L76.928 38.0698C78.1908 38.2026 79.485 38.3364 80.8255 38.4257L80.8421 38.4268H80.8587H80.8619H80.865H80.8681H80.8712H80.8743H80.8774H80.8806H80.8837H80.8868H80.8899H80.893H80.8961H80.8993H80.9024H80.9055H80.9086H80.9117H80.9148H80.918H80.9211H80.9242H80.9273H80.9304H80.9335H80.9366H80.9398H80.9429H80.946H80.9491H80.9522H80.9553H80.9584H80.9615H80.9647H80.9678H80.9709H80.974H80.9771H80.9802H80.9833H80.9864H80.9895H80.9927H80.9958H80.9989H81.002H81.0051H81.0082H81.0113H81.0144H81.0175H81.0206H81.0237H81.0268H81.0299H81.0331H81.0362H81.0393H81.0424H81.0455H81.0486H81.0517H81.0548H81.0579H81.061H81.0641H81.0672H81.0703H81.0734H81.0765H81.0796H81.0826H81.0857H81.0888H81.0919H81.095H81.0981H81.1012H81.1043H81.1074H81.1105H81.1136H81.1167H81.1198H81.1228H81.1259H81.129H81.1321H81.1352H81.1383H81.1414H81.1444H81.1475H81.1506H81.1537H81.1568H81.1599H81.1629H81.166H81.1691H81.1722H81.1752H81.1783H81.1814H81.1845H81.1875H81.1906H81.1937H81.1967H81.1998H81.2029H81.206H81.209H81.2121H81.2151H81.2182H81.2213H81.2243H81.2274H81.2305H81.2335H81.2366H81.2396H81.2427H81.2457H81.2488H81.2519H81.2549H81.258H81.261H81.2641H81.2671H81.2701H81.2732H81.2762H81.2793H81.2823H81.2854H81.2884H81.2915H81.2945H81.2975H81.3006H81.3036H81.3066H81.3097H81.3127H81.3157H81.3188H81.3218H81.3248H81.3278H81.3309H81.3339H81.3369H81.3399H81.3429H81.346H81.349H81.352H81.355H81.358H81.361H81.364H81.3671H81.3701H81.3731H81.3761H81.3791H81.3821H81.3851H81.3881H81.3911H81.3941H81.3971H81.4001H81.4031H81.4061H81.409H81.412H81.415H81.418H81.421H81.424H81.427H81.4299H81.4329H81.4359H81.4389H81.4418H81.4448H81.4478H81.4508H81.4537H81.4567H81.4597H81.4626H81.4656H81.4685H81.4715H81.4745H81.4774H81.4804H81.4833H81.4863H81.4892H81.4922H81.4951H81.4981H81.501H81.5039H81.5069H81.5098H81.5128H81.5157H81.5186H81.5216H81.5245H81.5274H81.5303H81.5333H81.5362H81.5391H81.542H81.5449H81.5479H81.5508H81.5537H81.5566H81.5595H81.5624H81.5653H81.5682H81.5711H81.574H81.5769H81.5798H81.5827H81.5856H81.5885H81.5914H81.5942H81.5971H81.6H81.6029H81.6058H81.6086H81.6115H81.6144H81.6173H81.6201H81.623H81.6259H81.6287H81.6316H81.6344H81.6373H81.6401H81.643H81.6458H81.6487H81.6515H81.6544H81.6572H81.6601H81.6629H81.6657H81.6686H81.6714H81.6742H81.6771H81.6799H81.6827H81.6855H81.6883H81.6912H81.694H81.6968H81.6996H81.7024H81.7052H81.708H81.7108H81.7136H81.7164H81.7192H81.722H81.7248H81.7276H81.7303H81.7331H81.7359H81.7387H81.7415H81.7442H81.747H81.7498H81.7525H81.7553H81.7581H81.7608H81.7636H81.7663H81.7691H81.7718H81.7746H81.7773H81.7801H81.7828H81.7855H81.7883H81.791H81.7937H81.7965H81.7992H81.8019H81.8046H81.8073H81.8101H81.8128H81.8155H81.8182H81.8209H81.8236H81.8263H81.829H81.8317H81.8344H81.8371H81.8398H81.8424H81.8451H81.8478H81.8505H81.8531H81.8558H81.8585H81.8611H81.8638H81.8665H81.8691H81.8718H81.8744H81.8771H81.8797H81.8824H81.885H81.8876H81.8903H81.8929H81.8955H81.8982H81.9008H81.9034H81.906H81.9087H81.9113H81.9139H81.9165H81.9191H81.9217H81.9243H81.9269H81.9295H81.9321H81.9347H81.9372H81.9398H81.9424H81.945H81.9475H81.9501H81.9527H81.9552H81.9578H81.9604H81.9629H81.9655H81.968H81.9706H81.9731H81.9756H81.9782H81.9807H81.9833H81.9858H81.9883H81.9908H81.9933H81.9959H81.9984H82.0009H82.0034H82.0059H82.0084H82.0109H82.0134H82.0159H82.0184H82.0208H82.0233H82.0258H82.0283H82.0307H82.0332H82.0357H82.0381H82.0406H82.0431H82.0455H82.048H82.0504H82.0528H82.0553H82.0577H82.0602H82.0626H82.065H82.0674H82.0698H82.0723H82.0747H82.0771H82.0795H82.0819H82.0843H82.0867H82.0891H82.0915H82.0939H82.0962H82.0986H82.101H82.1034H82.1057H82.1081H82.1105H82.1128H82.1152H82.1175H82.1199H82.1222H82.1246H82.1269H82.1292H82.1316H82.1339H82.1362H82.1385H82.1408H82.1432H82.1455H82.1478H82.1501H82.1524H82.1547H82.157H82.1592H82.1615H82.1638H82.1661H82.1684H82.1706H82.1729H82.1751H82.1774H82.1797H82.1819H82.1842H82.1864H82.1886H82.1909H82.1931H82.1953H82.1961C83.7658 38.9495 85.3454 39.4746 87.0981 39.9999L87.098 40L87.1102 40.0033C87.4138 40.0861 87.7628 40.1641 88.1094 40.2417C88.3241 40.2897 88.5379 40.3375 88.7395 40.3861C89.2941 40.5199 89.8102 40.6703 90.236 40.878C90.6608 41.0853 90.9537 41.3295 91.1156 41.6276C91.271 41.9137 91.3428 42.3183 91.1922 42.9294L0.52459 105.227ZM0.503059 104.958L0.503025 104.959C0.503316 104.956 0.503477 104.955 0.503391 104.955L0.503059 104.958Z" fill="#01B601" stroke="#181818"/>
</svg>
