<svg width="969" height="970" viewBox="0 0 969 970" fill="none" xmlns="http://www.w3.org/2000/svg">
<path d="M620.998 405.647C622.703 364.558 591.19 326.194 561.276 335.876C531.362 345.559 507.318 374.445 504.362 402.537C501.406 430.629 551.697 414.849 574.209 424.66C596.782 434.61 620.145 425.034 620.998 405.647Z" stroke="#464646" stroke-opacity="0.7" stroke-miterlimit="10"/>
<path d="M496.213 330.465C467.899 342.245 469.89 370.761 451.666 394.567C441.014 408.559 442.364 416.217 445.384 423.462C450.306 434.98 472.558 442.417 481.186 444.687C507.427 451.834 549.499 448.299 571.702 463.025C611.04 488.953 635.865 439.744 645.767 414.357C658.504 381.927 650.832 357.758 630.519 344.503C584.959 315.234 584.883 293.794 496.213 330.465Z" stroke="#464646" stroke-opacity="0.7" stroke-miterlimit="10"/>
<path d="M585.012 293.611C569.739 274.558 531.035 295.767 465.019 306.93C415.09 315.405 427.901 370.521 396.758 408.251C364.721 447.207 388.786 452.734 423.709 463.7C462.783 476.134 536.874 472.479 573.653 501.015C628.937 543.85 657.252 454.017 675.124 422.527C700.965 377.049 686.113 352.008 660.446 334.103C634.017 315.874 595.735 307.066 585.012 293.611Z" stroke="#464646" stroke-opacity="0.7" stroke-miterlimit="10"/>
<path d="M600.364 271.945C585.294 239.949 529.927 271.05 434.969 283.555C364.499 292.765 386.808 370.169 342.686 421.902C295.913 476.47 331.251 485.052 386.412 493.74C442.912 502.659 531.942 500.898 576.355 538.19C647.477 597.996 679.754 467.839 705.568 430.046C745.352 371.808 725.272 343.366 691.736 323.561C658.076 303.481 610.406 293.112 600.364 271.945Z" stroke="#464646" stroke-opacity="0.7" stroke-miterlimit="10"/>
<path d="M735.148 437.624C788.677 366.95 763.166 334.611 722.114 312.667C680.891 290.799 624.066 279.189 614.673 249.77C600.134 205.098 527.528 245.866 403.948 259.507C312.939 269.571 345.009 369.336 287.99 434.943C227.159 505.393 273.858 517.374 348.548 523.348C423.409 529.246 526.493 529.199 578.54 575.379C665.327 652.437 701.722 481.803 735.148 437.624Z" stroke="#464646" stroke-opacity="0.7" stroke-miterlimit="10"/>
<path d="M365.559 244.591C274.879 270.088 278.493 363.854 225.209 433.529C171.815 503.419 207.493 525.221 272.194 548.318C308.697 561.323 366.79 554.301 423.371 554.069C485.924 553.823 539.923 566.312 570.242 617.278C629.552 717.157 734.531 500.163 764.21 444.138C805.797 365.785 776.497 327.754 731.776 299.069C686.883 270.46 628.559 251.963 618.107 214.135C602.62 158.053 500.055 206.858 365.559 244.591Z" stroke="#464646" stroke-opacity="0.7" stroke-miterlimit="10"/>
<path d="M327.774 231.401C237.614 270.715 212.763 360.082 163.872 433.83C117.935 503.118 141.748 539.033 197.665 575.388C236.495 600.645 312.755 583.743 387.735 577.84C466.705 571.65 534.58 582.154 563.234 661.77C604.702 777.563 768.788 521.912 793.83 453.319C824.983 367.934 790.223 323.153 741.746 287.789C693.27 252.425 633.631 226.666 622.232 180.258C605.313 113.13 473.439 167.871 327.774 231.401Z" stroke="#464646" stroke-opacity="0.7" stroke-miterlimit="10"/>
<path d="M295.006 221.077C204.875 273.446 151.335 358.982 106.753 436.889C67.6037 505.266 78.3136 557.067 126.981 604.871C166.436 643.544 262.694 615.574 356.126 603.914C451.461 591.904 537.034 599.126 560.335 708.343C588.24 838.998 808.689 545.665 827.991 464.621C850.074 372.25 808.501 320.957 756.448 278.961C704.334 236.827 643.251 204.145 630.956 149.245C613.368 70.8971 451.005 130.284 295.006 221.077Z" stroke="#464646" stroke-opacity="0.7" stroke-miterlimit="10"/>
</svg>
