<svg width="820" height="759" viewBox="0 0 820 759" fill="none" xmlns="http://www.w3.org/2000/svg">
<path d="M547.408 316.844C548.747 284.703 524.027 254.726 500.56 262.33C477.094 269.934 458.231 292.554 455.911 314.53C453.591 336.506 493.043 324.112 510.703 331.764C528.41 339.523 546.738 332.009 547.408 316.844Z" stroke="#464646" stroke-opacity="0.6" stroke-miterlimit="10"/>
<path d="M449.701 258.355C427.484 267.6 429.044 289.908 414.743 308.552C406.384 319.511 407.444 325.5 409.813 331.165C413.675 340.172 431.134 345.967 437.905 347.734C458.494 353.299 491.507 350.49 508.929 361.989C539.794 382.233 559.276 343.708 567.047 323.836C577.043 298.45 571.024 279.549 555.086 269.199C519.338 246.347 519.28 229.573 449.701 258.355Z" stroke="#464646" stroke-opacity="0.6" stroke-miterlimit="10"/>
<path d="M519.11 229.726C507.136 214.834 476.826 231.44 425.116 240.203C386.006 246.856 396.069 289.952 371.69 319.474C346.612 349.956 365.466 354.266 392.83 362.825C423.446 372.528 481.486 369.633 510.311 391.931C553.641 425.402 575.779 355.134 589.764 330.499C609.986 294.92 598.339 275.345 578.223 261.355C557.511 247.112 527.517 240.243 519.11 229.726Z" stroke="#464646" stroke-opacity="0.6" stroke-miterlimit="10"/>
<path d="M531.054 212.282C519.198 187.191 475.768 211.589 401.247 221.407C345.945 228.639 363.521 289.338 328.935 329.914C292.271 372.714 320.015 379.44 363.317 386.246C407.671 393.234 477.548 391.842 512.439 421.083C568.314 467.975 593.535 365.899 613.764 336.257C644.939 290.58 629.155 268.277 602.815 252.75C576.378 237.007 538.954 228.881 531.054 212.282Z" stroke="#464646" stroke-opacity="0.6" stroke-miterlimit="10"/>
<path d="M637.589 341.213C679.621 285.886 659.615 260.638 627.41 243.538C595.07 226.498 550.483 217.499 543.123 194.512C531.732 159.607 474.742 191.579 377.762 202.413C306.342 210.406 331.469 288.359 286.7 339.729C238.938 394.891 275.579 404.194 334.186 408.762C392.928 413.271 473.819 413.093 514.644 449.125C582.717 509.251 611.342 375.798 637.589 341.213Z" stroke="#464646" stroke-opacity="0.6" stroke-miterlimit="10"/>
<path d="M346.914 191.485C275.891 211.447 278.823 284.89 237.148 339.458C195.387 394.195 223.366 411.274 274.085 429.37C302.7 439.559 348.21 434.065 392.543 433.888C441.554 433.701 483.878 443.487 507.688 483.409C554.266 561.645 636.287 391.694 659.481 347.815C691.983 286.449 668.984 256.659 633.913 234.187C598.708 211.775 552.99 197.282 544.76 167.653C532.565 123.725 452.255 161.943 346.914 191.485Z" stroke="#464646" stroke-opacity="0.6" stroke-miterlimit="10"/>
<path d="M317.216 180.503C246.549 211.318 227.094 281.241 188.789 338.963C152.799 393.194 171.477 421.272 215.322 449.672C245.769 469.401 305.544 456.127 364.321 451.458C426.225 446.562 479.436 454.731 501.922 516.99C534.462 607.538 663.017 407.447 682.628 353.774C707.024 286.961 679.762 251.955 641.751 224.326C603.739 196.697 556.979 176.589 548.03 140.294C534.748 87.7961 431.386 130.708 317.216 180.503Z" stroke="#464646" stroke-opacity="0.6" stroke-miterlimit="10"/>
<path d="M291.154 172.898C220.551 213.915 178.645 280.876 143.754 341.864C113.116 395.39 121.542 435.927 159.712 473.322C190.657 503.573 266.077 481.649 339.293 472.49C413.999 463.057 481.067 468.678 499.397 554.145C521.347 656.387 693.93 426.741 709.007 363.308C726.255 291.009 693.642 250.881 652.822 218.033C611.954 185.077 564.063 159.521 554.393 116.56C540.561 55.2502 413.354 101.786 291.154 172.898Z" stroke="#464646" stroke-opacity="0.6" stroke-miterlimit="10"/>
</svg>
